<?xml version="1.0" encoding="UTF-8" standalone="no"?>
<!-- Creator: CorelDRAW X6 -->

<svg
   xmlns:dc="http://purl.org/dc/elements/1.1/"
   xmlns:cc="http://creativecommons.org/ns#"
   xmlns:rdf="http://www.w3.org/1999/02/22-rdf-syntax-ns#"
   xmlns:svg="http://www.w3.org/2000/svg"
   xmlns="http://www.w3.org/2000/svg"
   xmlns:sodipodi="http://sodipodi.sourceforge.net/DTD/sodipodi-0.dtd"
   xmlns:inkscape="http://www.inkscape.org/namespaces/inkscape"
   xml:space="preserve"
   width="10.416667in"
   height="11.4566in"
   version="1.1"
   style="clip-rule:evenodd;fill-rule:evenodd;image-rendering:optimizeQuality;shape-rendering:geometricPrecision;text-rendering:geometricPrecision"
   viewBox="0 0 10416.64 11456.571"
   id="svg48"
   sodipodi:docname="Yogya Group.svg"
   inkscape:version="0.92.4 (5da689c313, 2019-01-14)"><metadata
   id="metadata52"><rdf:RDF><cc:Work
       rdf:about=""><dc:format>image/svg+xml</dc:format><dc:type
         rdf:resource="http://purl.org/dc/dcmitype/StillImage" /><dc:title></dc:title></cc:Work></rdf:RDF></metadata><sodipodi:namedview
   pagecolor="#ffffff"
   bordercolor="#666666"
   borderopacity="1"
   objecttolerance="10"
   gridtolerance="10"
   guidetolerance="10"
   inkscape:pageopacity="0"
   inkscape:pageshadow="2"
   inkscape:window-width="1920"
   inkscape:window-height="1001"
   id="namedview50"
   showgrid="false"
   fit-margin-top="0"
   fit-margin-left="0"
   fit-margin-right="0"
   fit-margin-bottom="0"
   inkscape:zoom="0.62441632"
   inkscape:cx="91.824231"
   inkscape:cy="438.7712"
   inkscape:window-x="-9"
   inkscape:window-y="-9"
   inkscape:window-maximized="1"
   inkscape:current-layer="svg48" />
 <defs
   id="defs4">
  <style
   type="text/css"
   id="style2">
   <![CDATA[
    .fil9 {fill:#00A759}
    .fil1 {fill:#0F5FFF}
    .fil12 {fill:#EC3337}
    .fil11 {fill:#F26B37}
    .fil10 {fill:#FFCC29}
    .fil2 {fill:white}
    .fil5 {fill:#009933;fill-rule:nonzero}
    .fil6 {fill:#0F5FFF;fill-rule:nonzero}
    .fil8 {fill:#4D4D4D;fill-rule:nonzero}
    .fil0 {fill:#B3B3B3;fill-rule:nonzero}
    .fil4 {fill:red;fill-rule:nonzero}
    .fil3 {fill:#FFCC00;fill-rule:nonzero}
    .fil7 {fill:white;fill-rule:nonzero}
   ]]>
  </style>
 
  
  
  =&quot;http://purl.org/dc/elements/1.1/&quot;/&gt;
  
  =&quot;http://purl.org/dc/elements/1.1/&quot;/&gt;
  
  
 </defs>
 <g
   id="_180718704"
   transform="matrix(5.4508843,0,0,5.4508843,-5516.2949,-2961.0178)">
   <g
   id="g40">
    <path
   style="fill:#00a759"
   inkscape:connector-curvature="0"
   id="path34"
   d="m 1302,637 c 76,-94 213,-122 321,-60 l 267,154 -95,55 c -65,31 -147,39 -196,21 L 1302,636 Z m 698,121 314,-181 c 108,-63 245,-35 321,60 l -667,384 -265,-153 c 45,17 105,-5 171,-36 l 126,-73 z"
   class="fil9" />
    <path
   style="fill:#ffcc29"
   inkscape:connector-curvature="0"
   id="path36"
   d="m 1717,1615 v -313 l 95,55 c 65,46 118,123 118,176 v 331 c -120,-19 -212,-123 -212,-248 z m -31,-422 -314,-181 C 1264,950 1220,817 1263,704 h 1 l 591,340 c 50,32 73,85 74,157 v 208 c 0,-53 -52,-98 -118,-144 l -126,-73 z"
   class="fil10" />
    <path
   style="fill:#f26b37"
   inkscape:connector-curvature="0"
   id="path38"
   d="m 2220,1615 v -369 -146 c 6,-75 18,-140 59,-169 l -197,113 c -50,32 -73,85 -74,157 v 661 c 120,-19 212,-123 212,-248 z m 79,-449 267,-154 c 108,-62 152,-195 109,-308 h -1 l -289,167 c -43,31 -79,110 -85,184 v 111 z"
   class="fil11" />
   </g>
   <path
   style="fill:#ec3337"
   inkscape:connector-curvature="0"
   id="path42"
   d="m 2509,2404 h 43 c 24,0 52,-19 62,-43 l 16,-38 h 172 l 16,38 c 10,24 38,43 62,43 h 43 l -165,-379 h -84 z m -299,-379 h 53 c 22,0 50,18 63,39 l 59,100 59,-100 c 13,-22 41,-39 63,-39 h 53 l -137,231 v 148 h -77 v -148 l -137,-231 z m -190,-10 c 55,0 105,21 141,56 l -43,66 c -21,-28 -54,-47 -104,-47 -50,0 -109,53 -109,119 0,66 51,119 115,119 26,0 51,-9 70,-25 v -51 c 0,-40 33,-73 73,-73 h 15 v 151 c -37,45 -94,74 -158,74 -111,0 -201,-87 -201,-195 0,-107 90,-195 201,-195 z m -453,0 c 111,0 201,87 201,195 0,107 -90,195 -201,195 -111,0 -201,-87 -201,-195 0,-107 90,-195 201,-195 z m 0,76 c 63,0 115,53 115,119 0,66 -51,119 -115,119 -63,0 -115,-53 -115,-119 0,-66 51,-119 115,-119 z m -554,-66 h 53 c 22,0 50,18 63,39 l 59,100 59,-100 c 13,-22 41,-39 63,-39 h 53 l -137,231 v 148 h -77 v -148 l -137,-231 z m 1651,221 52,-119 52,119 z"
   class="fil12" />
   <path
   style="fill:#00a759"
   inkscape:connector-curvature="0"
   id="path44"
   d="m 1519,2610 c -8,4 -16,6 -25,6 -27,0 -46,-19 -46,-45 0,-27 19,-45 46,-45 14,0 26,5 36,16 l 21,-19 c -14,-16 -34,-24 -59,-24 -45,0 -77,30 -77,73 0,42 33,73 77,73 20,0 41,-6 57,-18 v -57 h -30 v 41 z m 286,31 -32,-45 c 18,-8 29,-23 29,-44 0,-32 -24,-51 -61,-51 h -61 v 141 h 33 v -39 h 28 2 l 27,39 h 35 z m -36,-90 c 0,15 -10,25 -30,25 h -27 v -49 h 27 c 20,0 30,9 30,25 z m 228,92 c 44,0 77,-31 77,-73 0,-42 -33,-73 -77,-73 -44,0 -77,31 -77,73 0,42 33,73 77,73 z m 0,-28 c -25,0 -44,-18 -44,-45 0,-27 19,-45 44,-45 25,0 44,18 44,45 0,27 -19,45 -44,45 z m 265,28 c 40,0 64,-23 64,-64 v -79 h -32 v 78 c 0,27 -11,38 -31,38 -20,0 -31,-11 -31,-38 v -78 h -33 v 79 c 0,41 24,64 64,64 z m 258,-143 h -61 v 141 h 33 v -39 h 28 c 38,0 61,-19 61,-51 0,-32 -24,-51 -61,-51 z m -2,75 h -27 v -49 h 27 c 20,0 30,9 30,25 0,15 -10,24 -30,24 z"
   class="fil9" />
  </g>
</svg>